<svg width="35" height="35" viewBox="0 0 35 35" fill="none" xmlns="http://www.w3.org/2000/svg">
<path d="M34.2756 17.2132L18.3732 0.383302C18.2587 0.261796 18.1227 0.165398 17.973 0.0996266C17.8233 0.0338548 17.6628 0 17.5007 0C17.3386 0 17.1781 0.0338548 17.0284 0.0996266C16.8787 0.165398 16.7427 0.261796 16.6282 0.383302L0.725819 17.2132C0.26253 17.7039 0 18.3704 0 19.0655C0 20.5089 1.10803 21.6824 2.47087 21.6824H4.14643V33.6916C4.14643 34.4153 4.69852 35 5.38187 35H15.0299V25.8408H19.3539V35H29.6196C30.3029 35 30.855 34.4153 30.855 33.6916V21.6824H32.5306C33.1869 21.6824 33.8162 21.4085 34.2795 20.9137C35.2408 19.8915 35.2408 18.2355 34.2756 17.2132Z" fill="#8B8B8B"/>
</svg>
